<?xml version="1.0" encoding="utf-8"?>
<!-- Generator: Adobe Illustrator 27.8.0, SVG Export Plug-In . SVG Version: 6.00 Build 0)  -->
<svg version="1.1" id="Layer_1" xmlns="http://www.w3.org/2000/svg" xmlns:xlink="http://www.w3.org/1999/xlink" x="0px" y="0px"
	 viewBox="0 0 845.1 287.1" style="enable-background:new 0 0 845.1 287.1;" xml:space="preserve">
<style type="text/css">
	.st0{fill:#262929;}
</style>
<polygon class="st0" points="826,15.1 571.4,15.1 571.4,100.8 686.7,100.8 571.4,193.2 571.4,271.9 826,271.9 826,186.5 
	710.1,186.5 826,94.4 "/>
<polygon class="st0" points="114.5,15.2 19.1,15.2 19.1,271.9 249.8,271.9 249.8,186.5 114.5,186.5 "/>
<path class="st0" d="M410.5,9.9c-78,0-141.2,59.8-141.2,133.7c0,73.8,63.2,133.7,141.2,133.7c78,0,141.2-59.8,141.2-133.7
	C551.7,69.8,488.5,9.9,410.5,9.9z M461.6,164.1c-5.7,23.6-26.4,40.6-51,40.6c0,0,0,0,0,0s0,0,0,0c-24.6,0-45.4-17-51-40.6
	c-3.3-13.8-0.6-29.1,7.8-40.8c5.5-7.7,12.5-13.7,19.4-20c6.2-5.7,12.3-11.6,16.9-18.7c2.9-4.5,5.2-9.2,7-14.7v-0.1c0,0,0,0,0,0.1
	c0,0,0,0,0-0.1v0.1c1.7,5.5,4,10.3,7,14.7c4.7,7.1,10.7,13,16.9,18.7c6.9,6.3,13.9,12.3,19.4,20C462.2,135,464.9,150.2,461.6,164.1z
	"/>
</svg>
